<?xml version="1.0" standalone="no"?>
<!DOCTYPE svg PUBLIC "-//W3C//DTD SVG 20010904//EN"
 "http://www.w3.org/TR/2001/REC-SVG-20010904/DTD/svg10.dtd">
<svg version="1.0" xmlns="http://www.w3.org/2000/svg"
 viewBox="0 0 2600.000000 2600.000000"
 preserveAspectRatio="xMidYMid meet">
<metadata>
Created by potrace 1.15, written by Peter Selinger 2001-2017
</metadata>
<g transform="translate(0.000000,2600.000000) scale(0.100000,-0.100000)"
fill="#000000" stroke="none">
<path d="M6733 21882 c-102 -36 -169 -100 -204 -193 -18 -45 -19 -85 -19 -489
0 -419 1 -442 21 -494 26 -70 92 -139 167 -174 48 -23 70 -27 142 -27 102 1
160 25 230 95 88 88 85 63 88 588 l3 464 -24 52 c-35 75 -80 121 -155 158 -83
41 -170 48 -249 20z"/>
<path d="M4226 20835 c-71 -29 -118 -72 -154 -140 -23 -43 -27 -63 -27 -135 0
-70 4 -93 23 -130 28 -54 639 -672 692 -700 79 -41 185 -43 274 -6 44 18 116
90 139 138 41 86 40 185 -3 273 -12 26 -135 155 -342 361 -298 296 -328 323
-381 343 -76 28 -147 27 -221 -4z"/>
<path d="M9254 20842 c-70 -24 -105 -56 -430 -384 -205 -207 -287 -296 -304
-331 -94 -198 52 -430 271 -430 125 0 144 14 487 356 167 166 316 322 331 347
152 238 -87 534 -355 442z"/>
<path d="M6695 20143 c-629 -55 -1171 -353 -1541 -849 -254 -341 -396 -746
-411 -1179 -30 -837 431 -1605 1182 -1970 568 -276 1210 -286 1795 -26 346
153 685 446 898 774 68 104 162 291 206 408 135 364 167 776 90 1159 -130 644
-566 1200 -1164 1484 -321 152 -723 228 -1055 199z"/>
<path d="M3177 18300 c-107 -42 -166 -117 -174 -224 -8 -94 15 -153 82 -214
90 -83 99 -84 640 -80 l460 3 53 24 c63 28 133 103 150 159 42 139 -27 280
-162 331 -55 20 -71 21 -529 21 -437 -1 -476 -2 -520 -20z"/>
<path d="M9500 18311 c-90 -28 -167 -98 -190 -173 -45 -150 34 -299 182 -343
75 -22 930 -22 1005 0 149 44 230 186 188 330 -13 48 -27 70 -70 112 -86 84
-82 83 -624 82 -256 0 -477 -4 -491 -8z"/>
<path d="M20415 17534 c-917 -53 -1634 -211 -2340 -514 -434 -186 -923 -482
-1227 -742 l-56 -49 -169 101 c-833 500 -1837 793 -2983 871 -225 16 -813 15
-1045 0 -457 -31 -903 -89 -1305 -172 -167 -34 -511 -121 -559 -141 l-32 -13
157 -115 c1013 -738 1920 -1194 2874 -1444 171 -45 449 -100 605 -121 186 -24
184 -22 75 -61 -1047 -377 -2017 -985 -2925 -1835 -210 -196 -494 -495 -495
-520 0 -9 316 -28 660 -40 442 -16 970 5 1390 56 608 75 1171 211 1663 404
l107 43 103 -104 c178 -180 381 -297 625 -360 99 -25 142 -31 282 -35 243 -8
441 28 657 121 l81 34 -4 -36 c-8 -64 -663 -7924 -666 -7982 l-2 -55 1023 -3
1022 -2 -6 52 c-3 29 -152 1804 -330 3943 -179 2140 -327 3916 -331 3947 l-6
58 68 -41 c237 -144 538 -212 779 -175 251 38 443 135 614 309 56 57 144 172
153 199 2 6 65 -24 140 -65 1228 -681 2845 -1134 4338 -1217 243 -13 243 -13
237 4 -3 8 -61 90 -128 183 -446 613 -851 1087 -1335 1563 -557 547 -1098 964
-1689 1302 -135 77 -471 250 -542 280 -26 10 -23 12 57 30 442 100 985 272
1460 463 756 304 1523 716 2145 1153 169 118 347 253 342 258 -6 6 -378 104
-565 149 -684 163 -1243 252 -1922 305 -132 11 -876 21 -995 14z m-4352 -2803
c345 -91 605 -363 663 -692 87 -499 -314 -955 -866 -985 -371 -20 -727 176
-885 490 -66 130 -80 193 -80 361 0 171 16 240 86 376 126 243 390 426 684
472 73 12 321 -2 398 -22z m2111 -411 c121 -31 208 -82 307 -180 95 -94 146
-175 187 -298 23 -69 26 -93 26 -222 0 -129 -3 -153 -26 -222 -41 -123 -92
-204 -187 -298 -99 -98 -187 -150 -307 -180 -94 -24 -241 -26 -334 -4 -239 56
-440 256 -511 509 -32 111 -32 278 -1 388 73 258 267 453 511 512 86 21 244
19 335 -5z"/>
<path d="M4820 16398 c-73 -24 -143 -85 -436 -380 -275 -277 -303 -308 -322
-361 -68 -180 33 -368 218 -407 66 -14 143 -4 205 27 50 25 649 629 680 684
85 157 22 349 -139 420 -58 25 -155 33 -206 17z"/>
<path d="M8694 16392 c-121 -43 -204 -160 -204 -288 0 -24 10 -69 21 -101 20
-54 46 -83 347 -385 366 -367 372 -372 497 -372 171 0 299 128 299 299 0 123
-6 131 -362 488 -349 350 -370 366 -484 373 -45 3 -78 -1 -114 -14z"/>
<path d="M6714 15579 c-67 -26 -132 -83 -169 -150 l-30 -54 -3 -449 c-3 -517
-3 -519 75 -606 55 -61 139 -106 218 -115 102 -13 241 50 300 135 54 78 54 81
55 561 0 519 2 509 -89 600 -96 95 -234 126 -357 78z"/>
<path d="M4029 13400 c-362 -42 -480 -162 -480 -488 0 -233 56 -498 191 -902
244 -731 748 -1797 1265 -2676 1099 -1865 2456 -3457 3825 -4486 988 -742
2006 -1159 3024 -1239 188 -15 664 -6 836 15 701 88 1388 340 1906 702 149
103 173 134 235 292 72 184 139 468 176 742 26 192 26 705 0 905 -74 566 -231
1052 -511 1580 -409 772 -1108 1558 -1979 2228 -1340 1031 -2994 1896 -4900
2563 -1038 363 -2206 657 -2960 745 -195 22 -514 32 -628 19z m715 -581 c659
-96 1584 -330 2471 -624 1577 -522 3070 -1240 4286 -2060 1188 -801 1962
-1567 2460 -2435 259 -452 424 -917 501 -1410 20 -128 22 -183 22 -470 1 -285
-2 -342 -21 -460 -27 -172 -52 -282 -63 -278 -11 4 -360 278 -360 283 0 1 9
45 19 96 33 161 44 287 44 484 -1 700 -276 1384 -818 2035 -105 125 -400 426
-545 554 -1137 1008 -3013 1940 -4855 2411 -415 106 -720 166 -1035 203 l-155
18 -1030 814 c-1169 923 -1090 860 -1075 860 7 0 76 -9 154 -21z m496 -1197
c575 -454 1055 -834 1067 -846 15 -14 34 -62 57 -146 158 -571 548 -1412 1017
-2192 693 -1154 1507 -2128 2379 -2849 709 -586 1404 -916 2150 -1021 62 -8
194 -13 380 -12 244 0 304 3 419 22 334 55 686 172 929 310 l73 41 177 -140
c97 -77 177 -145 177 -151 0 -15 -215 -127 -380 -197 -338 -144 -668 -231
-1045 -278 -204 -25 -676 -25 -880 0 -904 112 -1744 475 -2619 1132 -961 722
-1958 1785 -2809 2993 -817 1159 -1551 2508 -1986 3652 -56 147 -176 498 -176
515 0 3 6 3 13 -1 6 -4 482 -379 1057 -832z m1741 -775 c43 -22 6598 -5156
6672 -5226 68 -64 90 -135 66 -218 -16 -57 -79 -125 -134 -143 -51 -17 -134
-8 -176 18 -19 12 -1530 1195 -3358 2629 -2718 2133 -3328 2615 -3344 2647
-12 22 -23 63 -25 92 -13 156 160 272 299 201z"/>
</g>
</svg>
